<svg width="24" height="24" viewBox="0 0 24 24" fill="none" xmlns="http://www.w3.org/2000/svg">
<path d="M21.6 12.0001C21.6 14.5461 20.5886 16.9879 18.7882 18.7883C16.9879 20.5886 14.5461 21.6001 12 21.6001C9.45392 21.6001 7.01212 20.5886 5.21178 18.7883C3.41143 16.9879 2.4 14.5461 2.4 12.0001C2.4 9.45397 3.41143 7.01218 5.21178 5.21183C7.01212 3.41148 9.45392 2.40005 12 2.40005C12.912 2.40005 13.8 2.53205 14.64 2.77205L16.524 0.888054C15.0892 0.297132 13.5518 -0.00463976 12 5.39224e-05C10.4241 5.39224e-05 8.86371 0.310443 7.4078 0.9135C5.95189 1.51656 4.62902 2.40047 3.51472 3.51477C1.26428 5.76521 0 8.81746 0 12.0001C0 15.1827 1.26428 18.2349 3.51472 20.4853C4.62902 21.5996 5.95189 22.4836 7.4078 23.0866C8.86371 23.6897 10.4241 24.0001 12 24.0001C15.1826 24.0001 18.2348 22.7358 20.4853 20.4853C22.7357 18.2349 24 15.1827 24 12.0001H21.6ZM7.092 9.69605L5.4 11.4001L10.8 16.8001L22.8 4.80005L21.108 3.09605L10.8 13.4041L7.092 9.69605Z" fill="#F48013"/>
</svg>
