<svg width="18" height="18" viewBox="0 0 18 18" fill="none" xmlns="http://www.w3.org/2000/svg">
<path d="M5.1269 0.394933L6.09531 0.0853298C7.00342 -0.204474 7.97363 0.264432 8.36244 1.18064L9.13645 3.00586C9.47305 3.80057 9.28585 4.73568 8.67384 5.31709L6.96832 6.93531C7.07362 7.90372 7.39943 8.85683 7.94483 9.79464C8.46276 10.702 9.15748 11.4962 9.98786 12.1302L12.0363 11.4462C12.8121 11.1879 13.6581 11.4858 14.1333 12.1851L15.243 13.8141C15.7965 14.6277 15.6966 15.7491 15.0099 16.4385L14.2746 17.1774C13.542 17.9127 12.4953 18.18 11.5278 17.8776C9.24175 17.1648 7.14202 15.0489 5.225 11.5299C3.30528 8.00542 2.62757 5.01379 3.19278 2.55856C3.43038 1.52535 4.16569 0.701837 5.1269 0.394933Z" fill="#F48013"/>
</svg>
