<svg width="18" height="18" viewBox="0 0 18 18" fill="none" xmlns="http://www.w3.org/2000/svg">
<path d="M17.1 2.00593C17.0233 1.99802 16.9461 1.99802 16.8694 2.00593H1.11938C1.01844 2.00748 0.918164 2.02262 0.821259 2.05093L8.94938 10.1453L17.1 2.00593Z" fill="#F48013"/>
<path d="M17.9325 2.78809L9.7425 10.9443C9.53172 11.1539 9.24658 11.2715 8.94938 11.2715C8.65217 11.2715 8.36703 11.1539 8.15625 10.9443L0.039375 2.84996C0.0144222 2.94167 0.00119176 3.03617 0 3.13121V14.3812C0 14.6796 0.118526 14.9657 0.329505 15.1767C0.540483 15.3877 0.826631 15.5062 1.125 15.5062H16.875C17.1734 15.5062 17.4595 15.3877 17.6705 15.1767C17.8815 14.9657 18 14.6796 18 14.3812V3.13121C17.9955 3.01402 17.9727 2.89824 17.9325 2.78809ZM1.89563 14.3812H1.11375V13.5768L5.20312 9.52121L5.99625 10.3143L1.89563 14.3812ZM16.8638 14.3812H16.0763L11.9756 10.3143L12.7687 9.52121L16.8581 13.5768L16.8638 14.3812Z" fill="#F48013"/>
</svg>
