<svg width="166" height="42" viewBox="0 0 166 42" fill="none" xmlns="http://www.w3.org/2000/svg">
<path d="M69.56 13.96L65.9 28H61.76L59.52 18.76L57.2 28H53.06L49.5 13.96H53.16L55.18 24.18L57.68 13.96H61.44L63.84 24.18L65.88 13.96H69.56ZM70.5952 22.4C70.5952 21.2533 70.8085 20.2467 71.2352 19.38C71.6752 18.5133 72.2685 17.8467 73.0152 17.38C73.7618 16.9133 74.5952 16.68 75.5152 16.68C76.3018 16.68 76.9885 16.84 77.5752 17.16C78.1752 17.48 78.6352 17.9 78.9552 18.42V16.84H82.3752V28H78.9552V26.42C78.6218 26.94 78.1552 27.36 77.5552 27.68C76.9685 28 76.2818 28.16 75.4952 28.16C74.5885 28.16 73.7618 27.9267 73.0152 27.46C72.2685 26.98 71.6752 26.3067 71.2352 25.44C70.8085 24.56 70.5952 23.5467 70.5952 22.4ZM78.9552 22.42C78.9552 21.5667 78.7152 20.8933 78.2352 20.4C77.7685 19.9067 77.1952 19.66 76.5152 19.66C75.8352 19.66 75.2552 19.9067 74.7752 20.4C74.3085 20.88 74.0752 21.5467 74.0752 22.4C74.0752 23.2533 74.3085 23.9333 74.7752 24.44C75.2552 24.9333 75.8352 25.18 76.5152 25.18C77.1952 25.18 77.7685 24.9333 78.2352 24.44C78.7152 23.9467 78.9552 23.2733 78.9552 22.42ZM88.2694 18.7C88.6694 18.0867 89.1694 17.6067 89.7694 17.26C90.3694 16.9 91.036 16.72 91.7694 16.72V20.34H90.8294C89.976 20.34 89.336 20.5267 88.9094 20.9C88.4827 21.26 88.2694 21.9 88.2694 22.82V28H84.8494V16.84H88.2694V18.7ZM103.924 22.24C103.924 22.56 103.904 22.8933 103.864 23.24H96.1241C96.1774 23.9333 96.3974 24.4667 96.7841 24.84C97.1841 25.2 97.6707 25.38 98.2441 25.38C99.0974 25.38 99.6907 25.02 100.024 24.3H103.664C103.477 25.0333 103.137 25.6933 102.644 26.28C102.164 26.8667 101.557 27.3267 100.824 27.66C100.091 27.9933 99.2707 28.16 98.3641 28.16C97.2707 28.16 96.2974 27.9267 95.4441 27.46C94.5907 26.9933 93.9241 26.3267 93.4441 25.46C92.9641 24.5933 92.7241 23.58 92.7241 22.42C92.7241 21.26 92.9574 20.2467 93.4241 19.38C93.9041 18.5133 94.5707 17.8467 95.4241 17.38C96.2774 16.9133 97.2574 16.68 98.3641 16.68C99.4441 16.68 100.404 16.9067 101.244 17.36C102.084 17.8133 102.737 18.46 103.204 19.3C103.684 20.14 103.924 21.12 103.924 22.24ZM100.424 21.34C100.424 20.7533 100.224 20.2867 99.8241 19.94C99.4241 19.5933 98.9241 19.42 98.3241 19.42C97.7507 19.42 97.2641 19.5867 96.8641 19.92C96.4774 20.2533 96.2374 20.7267 96.1441 21.34H100.424Z" fill="#F48013"/>
<path d="M111.468 16.84C112.295 16.84 113.042 17.02 113.708 17.38C114.375 17.7267 114.895 18.2533 115.268 18.96C115.655 19.6667 115.848 20.5267 115.848 21.54V28H114.048V21.8C114.048 20.7067 113.775 19.8733 113.228 19.3C112.682 18.7133 111.935 18.42 110.988 18.42C110.028 18.42 109.262 18.72 108.688 19.32C108.128 19.92 107.848 20.7933 107.848 21.94V28H106.028V13.2H107.848V18.6C108.208 18.04 108.702 17.6067 109.328 17.3C109.968 16.9933 110.682 16.84 111.468 16.84ZM123.601 28.18C122.575 28.18 121.641 27.9467 120.801 27.48C119.975 27.0133 119.321 26.3533 118.841 25.5C118.375 24.6333 118.141 23.6333 118.141 22.5C118.141 21.38 118.381 20.3933 118.861 19.54C119.355 18.6733 120.021 18.0133 120.861 17.56C121.701 17.0933 122.641 16.86 123.681 16.86C124.721 16.86 125.661 17.0933 126.501 17.56C127.341 18.0133 128.001 18.6667 128.481 19.52C128.975 20.3733 129.221 21.3667 129.221 22.5C129.221 23.6333 128.968 24.6333 128.461 25.5C127.968 26.3533 127.295 27.0133 126.441 27.48C125.588 27.9467 124.641 28.18 123.601 28.18ZM123.601 26.58C124.255 26.58 124.868 26.4267 125.441 26.12C126.015 25.8133 126.475 25.3533 126.821 24.74C127.181 24.1267 127.361 23.38 127.361 22.5C127.361 21.62 127.188 20.8733 126.841 20.26C126.495 19.6467 126.041 19.1933 125.481 18.9C124.921 18.5933 124.315 18.44 123.661 18.44C122.995 18.44 122.381 18.5933 121.821 18.9C121.275 19.1933 120.835 19.6467 120.501 20.26C120.168 20.8733 120.001 21.62 120.001 22.5C120.001 23.3933 120.161 24.1467 120.481 24.76C120.815 25.3733 121.255 25.8333 121.801 26.14C122.348 26.4333 122.948 26.58 123.601 26.58ZM141.334 17.04V28H139.514V26.38C139.168 26.94 138.681 27.38 138.054 27.7C137.441 28.0067 136.761 28.16 136.014 28.16C135.161 28.16 134.394 27.9867 133.714 27.64C133.034 27.28 132.494 26.7467 132.094 26.04C131.708 25.3333 131.514 24.4733 131.514 23.46V17.04H133.314V23.22C133.314 24.3 133.588 25.1333 134.134 25.72C134.681 26.2933 135.428 26.58 136.374 26.58C137.348 26.58 138.114 26.28 138.674 25.68C139.234 25.08 139.514 24.2067 139.514 23.06V17.04H141.334ZM148.287 28.18C147.447 28.18 146.694 28.04 146.027 27.76C145.361 27.4667 144.834 27.0667 144.447 26.56C144.061 26.04 143.847 25.4467 143.807 24.78H145.687C145.741 25.3267 145.994 25.7733 146.447 26.12C146.914 26.4667 147.521 26.64 148.267 26.64C148.961 26.64 149.507 26.4867 149.907 26.18C150.307 25.8733 150.507 25.4867 150.507 25.02C150.507 24.54 150.294 24.1867 149.867 23.96C149.441 23.72 148.781 23.4867 147.887 23.26C147.074 23.0467 146.407 22.8333 145.887 22.62C145.381 22.3933 144.941 22.0667 144.567 21.64C144.207 21.2 144.027 20.6267 144.027 19.92C144.027 19.36 144.194 18.8467 144.527 18.38C144.861 17.9133 145.334 17.5467 145.947 17.28C146.561 17 147.261 16.86 148.047 16.86C149.261 16.86 150.241 17.1667 150.987 17.78C151.734 18.3933 152.134 19.2333 152.187 20.3H150.367C150.327 19.7267 150.094 19.2667 149.667 18.92C149.254 18.5733 148.694 18.4 147.987 18.4C147.334 18.4 146.814 18.54 146.427 18.82C146.041 19.1 145.847 19.4667 145.847 19.92C145.847 20.28 145.961 20.58 146.187 20.82C146.427 21.0467 146.721 21.2333 147.067 21.38C147.427 21.5133 147.921 21.6667 148.547 21.84C149.334 22.0533 149.974 22.2667 150.467 22.48C150.961 22.68 151.381 22.9867 151.727 23.4C152.087 23.8133 152.274 24.3533 152.287 25.02C152.287 25.62 152.121 26.16 151.787 26.64C151.454 27.12 150.981 27.5 150.367 27.78C149.767 28.0467 149.074 28.18 148.287 28.18ZM164.856 22.1C164.856 22.4467 164.836 22.8133 164.796 23.2H156.036C156.103 24.28 156.47 25.1267 157.136 25.74C157.816 26.34 158.636 26.64 159.596 26.64C160.383 26.64 161.036 26.46 161.556 26.1C162.09 25.7267 162.463 25.2333 162.676 24.62H164.636C164.343 25.6733 163.756 26.5333 162.876 27.2C161.996 27.8533 160.903 28.18 159.596 28.18C158.556 28.18 157.623 27.9467 156.796 27.48C155.983 27.0133 155.343 26.3533 154.876 25.5C154.41 24.6333 154.176 23.6333 154.176 22.5C154.176 21.3667 154.403 20.3733 154.856 19.52C155.31 18.6667 155.943 18.0133 156.756 17.56C157.583 17.0933 158.53 16.86 159.596 16.86C160.636 16.86 161.556 17.0867 162.356 17.54C163.156 17.9933 163.77 18.62 164.196 19.42C164.636 20.2067 164.856 21.1 164.856 22.1ZM162.976 21.72C162.976 21.0267 162.823 20.4333 162.516 19.94C162.21 19.4333 161.79 19.0533 161.256 18.8C160.736 18.5333 160.156 18.4 159.516 18.4C158.596 18.4 157.81 18.6933 157.156 19.28C156.516 19.8667 156.15 20.68 156.056 21.72H162.976Z" fill="white"/>
<circle cx="21" cy="21" r="21" fill="white"/>
<path d="M30.56 13.96L26.9 28H22.76L20.52 18.76L18.2 28H14.06L10.5 13.96H14.16L16.18 24.18L18.68 13.96H22.44L24.84 24.18L26.88 13.96H30.56Z" fill="#03045E"/>
</svg>
